Coordinates
version=1
nRows=8
nColumns=36
inDegrees=yes

Units are S.I. units (second, meters, Newtons, ...)
Angles are in degrees.

endheader
time	pelvis_tilt	pelvis_list	pelvis_rotation	pelvis_tx	pelvis_ty	pelvis_tz	hip_flexion_r	hip_adduction_r	hip_rotation_r	knee_angle_r	ankle_angle_r	subtalar_angle_r	hip_flexion_l	hip_adduction_l	hip_rotation_l	knee_angle_l	ankle_angle_l	subtalar_angle_l	lumbar_extension	lumbar_bending	lumbar_rotation	arm_flex_r	arm_add_r	arm_rot_r	elbow_flex_r	pro_sup_r	wrist_flex_r	wrist_dev_r	arm_flex_l	arm_add_l	arm_rot_l	elbow_flex_l	pro_sup_l	wrist_flex_l	wrist_dev_l
      2.00000000	     -0.36487335	      2.05747364	     -1.02396820	     -0.82584161	      0.91581517	      0.22091059	     28.27570067	     -1.10742839	     -3.52605917	    -48.72231605	      1.03811589	    -10.48090123	      0.27344461	      6.66273864	      5.45155301	    -15.86201000	     11.48953275	     -0.61548344	     -5.16233031	     -1.66687666	     -5.96948947	     -6.70855238	    -17.43139196	      9.59715118	     23.45975053	     86.51662706	      0.00000000	      0.00000000	     -3.94550836	    -18.04718398	     11.18111154	     30.29641567	     86.51662706	      0.00000000	      0.00000000
      2.01000000	      0.19167117	      1.87331539	     -0.86431211	     -0.81335905	      0.91567992	      0.22141556	     28.02056066	     -0.99732805	     -3.82720561	    -45.46451775	      1.07988713	    -10.93755666	     -1.67100391	      6.37114589	      5.52579947	    -15.01032694	     11.95058500	     -0.21375658	     -5.82716167	     -1.44202797	     -6.38078072	     -6.68657056	    -17.18339283	      8.99836852	     22.82828355	     86.51662706	      0.00000000	      0.00000000	     -3.69280927	    -18.35253347	     10.95622610	     31.24221419	     86.51662706	      0.00000000	      0.00000000
      2.02000000	      0.59417849	      1.80299699	     -0.71729793	     -0.80092467	      0.91539573	      0.22182950	     27.89813674	     -1.00628439	     -4.10463953	    -42.16077004	      1.15186047	    -10.72173044	     -3.41971773	      6.20861975	      5.64316974	    -14.18627402	     12.31059145	      0.05912486	     -6.34199524	     -1.32468397	     -6.74355987	     -6.71884762	    -16.99376700	      8.64664880	     22.28362583	     86.51662706	      0.00000000	      0.00000000	     -3.34767517	    -18.62632376	     10.82981332	     31.93878696	     86.51662706	      0.00000000	      0.00000000
      2.03000000	      0.86716936	      1.81143749	     -0.58025457	     -0.78848466	      0.91491748	      0.22224919	     27.87012439	     -1.09199769	     -4.37524977	    -38.81547441	      1.25741198	     -9.92196654	     -5.00322837	      6.13272868	      5.78965778	    -13.40080127	     12.59761749	      0.23532873	     -6.72386645	     -1.28639414	     -7.06340452	     -6.79354633	    -16.84703554	      8.49216053	     21.81158529	     86.51662706	      0.00000000	      0.00000000	     -2.93692423	    -18.87442666	     10.78861715	     32.43174100	     86.51662706	      0.00000000	      0.00000000
      2.04000000	      1.03877165	      1.85614301	     -0.44994367	     -0.77600255	      0.91408999	      0.22276172	     27.89569476	     -1.20760149	     -4.66354673	    -35.44304036	      1.40048841	     -8.64948580	     -6.45360405	      6.09408387	      5.94933067	    -12.66974037	     12.84399459	      0.35468365	     -6.99306235	     -1.29229758	     -7.34793634	     -6.89657354	    -16.72637023	      8.47484824	     21.39480321	     86.51662706	      0.00000000	      0.00000000	     -2.49153999	    -19.10261281	     10.81547303	     32.77510116	     86.51662706	      0.00000000	      0.00000000
      2.05000000	      1.13580108	      1.90023994	     -0.32355059	     -0.76344966	      0.91277785	      0.22339077	     27.94120375	     -1.31522821	     -4.99743756	    -32.07243585	      1.58444477	     -7.02045775	     -7.79663190	      6.04880551	      6.10837446	    -12.01214257	     13.07754854	      0.45686441	     -7.17082239	     -1.30927121	     -7.60600006	     -7.01412485	    -16.61797502	      8.53690663	     21.01624813	     86.51662706	      0.00000000	      0.00000000	     -2.03880617	    -19.31456126	     10.89189578	     33.01948835	     86.51662706	      0.00000000	      0.00000000
      2.06000000	      1.18187319	      1.92192638	     -0.19865972	     -0.75078933	      0.91108577	      0.22409913	     27.98356588	     -1.39250006	     -5.40284568	    -28.74962354	      1.81110041	     -5.14632064	     -9.04870949	      5.96689288	      6.25743657	    -11.44902946	     13.31592325	      0.57606882	     -7.27864674	     -1.31191807	     -7.84716108	     -7.13392081	    -16.51287582	      8.63061876	     20.66158055	     86.51662706	      0.00000000	      0.00000000	     -1.59785489	    -19.51117661	     10.99982523	     33.20505726	     86.51662706	      0.00000000	      0.00000000
      2.07000000	      1.19698701	      1.91513325	     -0.07172987	     -0.73799942	      0.90929871	      0.22484648	     28.01053820	     -1.43166682	     -5.89800953	    -25.53731939	      2.08004723	     -3.13034963	    -10.21651489	      5.83610440	      6.39209069	    -11.00243877	     13.56442206	      0.73812508	     -7.33759959	     -1.28558542	     -8.08126517	     -7.24564550	    -16.40662808	      8.72216614	     20.32052464	     86.51662706	      0.00000000	      0.00000000	     -1.17888305	    -19.69104570	     11.12276278	     33.35866395	     86.51662706	      0.00000000	      0.00000000
